# xmcd
#
# Track frame offsets: 
#        150
#        23805
#        41935
#        57520
#        69502
#        87590
#        108415
#        124895
#        141962
#        154925
#        170492
#        189932
#        205555
#        225332
#
# Disc length: 3179 seconds
#
# Revision: 0
# Processed by: cddbd v1.4PL0 Copyright (c) Steve Scherf et al.
# Submitted via: ExactAudioCopy v0.90b4
#
DISCID=c20c690e
DTITLE=Freddie Waters - One Step Closer To The Blues
DYEAR=2000
DGENRE=Soul Blues
TTITLE0=Full Moon On Main Street
TTITLE1=Tough As Nails
TTITLE2=My Mistakes
TTITLE3=Nobody Knows
TTITLE4=Tend To Your Business
TTITLE5=Reality
TTITLE6=I'm Living Goog
TTITLE7=Why Do You Treat Me Like I'm Not Your Man
TTITLE8=I Love You, I Love You
TTITLE9=Nobody Can Love Me
TTITLE10=It Tears Me Up
TTITLE11=Everybody Needs Love
TTITLE12=One Step Closer To The Blues
TTITLE13=A Stronger Man
EXTD=
EXTT0=
EXTT1=
EXTT2=
EXTT3=
EXTT4=
EXTT5=
EXTT6=
EXTT7=
EXTT8=
EXTT9=
EXTT10=
EXTT11=
EXTT12=
EXTT13=
PLAYORDER=
